<svg xmlns="http://www.w3.org/2000/svg" xmlns:xlink="http://www.w3.org/1999/xlink" width="795.0936889648438" height="714.8538818359375" viewBox="0 0 795.0936889648438 714.8538818359375" fill="none">
<path d="M0 356.141C0 416.188 58.6344 472.241 151.072 503.837C132.613 596.766 147.766 671.669 198.372 700.853C250.387 730.853 327.881 710.088 401.434 645.791C473.131 707.491 545.591 731.772 596.153 702.503C648.122 672.419 663.925 592.438 644.956 496.606C741.237 464.775 795.094 416.978 795.094 356.141C795.094 297.489 736.353 246.748 645.159 215.354C665.581 115.564 648.278 42.4794 595.575 12.0888C544.766 -17.2112 471.462 8.32634 398.712 71.6387C323.025 4.43884 250.447 -16.0768 197.8 14.3982C147.038 43.7825 132.553 120.048 151.072 214.695C61.7531 245.836 0 297.726 0 356.141Z"   fill="#FFFFFF" >
</path>
<path d="M625.847 246.529C618.331 243.951 610.753 241.564 603.116 239.367C604.381 234.221 605.553 229.053 606.628 223.864C623.834 140.339 612.584 73.0513 574.166 50.9014C537.331 29.6576 477.087 51.8076 416.244 104.754C410.247 109.984 404.387 115.363 398.662 120.889C394.828 117.214 390.928 113.613 386.962 110.083C323.197 53.4639 259.281 29.6076 220.903 51.8233C184.103 73.1264 173.203 136.386 188.694 215.542C190.235 223.382 191.975 231.178 193.912 238.929C184.869 241.498 176.134 244.236 167.778 247.148C93.0218 273.211 45.278 314.061 45.278 356.431C45.278 400.193 96.528 444.087 174.397 470.7C180.712 472.847 187.076 474.837 193.491 476.668C191.406 485.018 189.558 493.422 187.944 501.878C173.175 579.659 184.709 641.418 221.412 662.59C259.322 684.45 322.947 661.981 384.903 607.825C389.8 603.543 394.716 599.003 399.637 594.244C405.837 600.225 412.2 606.031 418.725 611.659C478.737 663.3 538.006 684.153 574.678 662.925C612.553 641 624.859 574.653 608.878 493.931C607.659 487.765 606.237 481.468 604.644 475.056C609.112 473.737 613.497 472.375 617.775 470.956C698.725 444.137 751.391 400.778 751.391 356.431C751.391 313.908 702.109 272.783 625.847 246.529Z"   fill="#53C1DE" >
</path>
<path d="M608.287 442.322C604.428 443.6 600.466 444.834 596.428 446.031C587.491 417.741 575.428 387.656 560.672 356.579C574.756 326.236 586.35 296.539 595.037 268.429C602.259 270.523 609.272 272.726 616.028 275.054C681.372 297.545 721.228 330.804 721.228 356.429C721.228 383.726 678.181 419.163 608.291 442.322L608.287 442.322ZM579.287 499.788C586.353 535.481 587.363 567.753 582.681 592.981C578.475 615.65 570.019 630.763 559.562 636.816C537.309 649.697 489.719 632.953 438.4 588.791C432.516 583.728 426.588 578.322 420.644 572.603C440.541 550.841 460.425 525.541 479.831 497.447C513.969 494.419 546.219 489.466 575.466 482.706C576.903 488.519 578.184 494.216 579.287 499.788ZM286.006 634.591C264.266 642.269 246.95 642.488 236.484 636.453C214.209 623.609 204.953 574.016 217.581 507.5C219.083 499.638 220.802 491.825 222.738 484.056C251.659 490.453 283.675 495.056 317.894 497.831C337.428 525.322 357.888 550.591 378.506 572.719C374.123 576.959 369.638 581.088 365.053 585.106C337.656 609.056 310.203 626.044 286.009 634.591L286.006 634.591ZM184.153 442.153C149.722 430.384 121.288 415.091 101.797 398.403C84.2844 383.404 75.4406 368.514 75.4406 356.429C75.4406 330.72 113.775 297.923 177.709 275.633C185.736 272.846 193.837 270.297 202.013 267.986C210.85 296.726 222.441 326.776 236.428 357.164C222.259 388.003 210.503 418.531 201.584 447.609C195.729 445.934 189.919 444.116 184.153 442.153ZM218.297 209.748C205.025 141.926 213.838 90.767 236.016 77.9295C259.641 64.2545 311.875 83.7545 366.931 132.639C370.45 135.764 373.984 139.036 377.525 142.42C357.013 164.448 336.741 189.526 317.375 216.858C284.166 219.936 252.375 224.879 223.15 231.501C221.35 224.29 219.732 217.038 218.297 209.745L218.297 209.748ZM522.881 284.958C515.978 273.033 508.819 261.262 501.409 249.645C523.941 252.489 545.525 256.27 565.794 260.898C559.709 280.401 552.125 300.795 543.194 321.701C536.666 309.318 529.897 297.07 522.881 284.958ZM398.672 163.976C412.584 179.048 426.519 195.879 440.225 214.139C412.406 212.824 384.588 212.818 356.769 214.12C370.488 196.029 384.541 179.223 398.672 163.976ZM273.666 285.164C266.738 297.181 260.094 309.353 253.734 321.679C244.95 300.845 237.434 280.361 231.297 260.579C251.444 256.07 272.928 252.386 295.312 249.589C287.818 261.278 280.603 273.136 273.666 285.164ZM295.956 465.422C272.831 462.841 251.022 459.344 230.881 454.959C237.116 434.828 244.797 413.903 253.769 392.622C260.155 404.959 266.828 417.138 273.788 429.159C280.889 441.425 288.278 453.513 295.956 465.422ZM399.506 551.013C385.209 535.584 370.95 518.522 357.022 500.169C370.541 500.7 384.325 500.969 398.334 500.969C412.728 500.969 426.956 500.647 440.959 500.022C427.209 518.709 413.325 535.797 399.506 551.013ZM543.481 391.538C552.919 413.05 560.875 433.863 567.194 453.653C546.719 458.325 524.616 462.088 501.325 464.881C508.791 453.05 516.016 441.072 523.003 428.95C530.106 416.631 536.934 404.163 543.481 391.538ZM496.872 413.881C486.172 432.469 474.881 450.688 462.997 468.538C442.047 470.034 420.397 470.806 398.334 470.806C376.363 470.806 354.988 470.122 334.403 468.788C322.209 450.975 310.706 432.728 299.894 414.047C289.132 395.466 279.09 376.5 269.769 357.154C279.066 337.802 289.078 318.827 299.803 300.229L299.803 300.236C310.526 281.633 321.938 263.465 334.041 245.729C355.041 244.142 376.572 243.311 398.338 243.311C420.2 243.311 441.759 244.148 462.753 245.748C474.731 263.455 486.072 281.563 496.775 300.07C507.534 318.626 517.681 337.512 527.216 356.726C517.781 376.139 507.666 395.191 496.875 413.881L496.872 413.881ZM559.1 77.0326C582.744 90.6701 591.941 145.661 577.084 217.776C576.113 222.475 575.053 227.154 573.909 231.814C544.616 225.054 512.803 220.023 479.497 216.898C460.094 189.27 439.991 164.148 419.809 142.404C425.1 137.305 430.513 132.341 436.047 127.511C488.178 82.142 536.9 64.2295 559.1 77.0326Z"   fill="#FFFFFF" >
</path>
<path d="M398.334 293.376C433.159 293.376 461.387 321.608 461.387 356.429C461.387 391.254 433.159 419.486 398.334 419.486C363.512 419.486 335.281 391.254 335.281 356.429C335.281 321.608 363.512 293.376 398.334 293.376Z"   fill="#53C1DE" >
</path>
<path d="M278.295 296.031C309.188 296.031 334.232 270.992 334.232 240.105C334.232 209.217 309.188 184.179 278.295 184.179C247.402 184.179 222.358 209.217 222.358 240.105C222.358 270.992 247.402 296.031 278.295 296.031ZM146.081 407.882C176.974 407.882 202.017 382.843 202.017 351.956C202.017 321.071 176.974 296.031 146.081 296.031C115.187 296.031 90.1437 321.071 90.1437 351.956C90.1437 382.843 115.187 407.882 146.081 407.882ZM651.206 407.882C682.1 407.882 707.143 382.843 707.143 351.956C707.143 321.071 682.1 296.031 651.206 296.031C620.313 296.031 595.269 321.071 595.269 351.956C595.269 382.843 620.313 407.882 651.206 407.882Z"   fill="#000000" >
</path>
<path d="M467.49 242.461C465.701 223.776 464.793 208.225 450.474 197.295C432.345 183.452 411.806 192.434 386.506 183.304C361.648 177.292 343.21 155.225 343.21 128.923C343.21 97.995 368.705 72.9232 400.152 72.9232C423.447 72.9232 443.473 86.6765 452.294 106.376C465.793 132.014 457.018 158.106 473.98 171.248C494.064 186.81 521.142 175.414 551.356 190.159C561.064 194.619 569.283 201.693 575.072 210.461C580.863 219.228 584.226 229.689 584.226 240.922C584.226 267.224 565.788 289.291 540.93 295.304C515.63 304.434 495.091 295.452 476.962 309.294C456.572 324.861 467.487 350.902 450.869 378.409C441.438 396.525 422.268 408.923 400.152 408.923C368.705 408.923 343.21 383.85 343.21 352.921C343.21 330.456 356.664 311.078 376.08 302.158C406.294 287.414 433.372 298.81 453.455 283.248C465.041 274.27 467.49 260.422 467.49 242.461Z"   fill="#D0021B" >
</path>
</svg>
